<svg xmlns="http://www.w3.org/2000/svg" viewBox="0 0 240 240">
<defs>
  <radialGradient id="glow" cx="50%" cy="46%" r="60%">
    <stop offset="0%" stop-color="#36d6ff" stop-opacity=".28"/>
    <stop offset="55%" stop-color="#0a84ff" stop-opacity=".10"/>
    <stop offset="100%" stop-color="#04101a" stop-opacity="0"/>
  </radialGradient>
  <linearGradient id="ink" x1="0" y1="0" x2="1" y2="1">
    <stop offset="0" stop-color="#07182a"/><stop offset="1" stop-color="#030b14"/>
  </linearGradient>
  <linearGradient id="cy" x1="0" y1="0" x2="0" y2="1">
    <stop offset="0" stop-color="#7fe6ff"/><stop offset="1" stop-color="#36d6ff"/>
  </linearGradient>
</defs>
<rect x="8" y="8" width="224" height="224" rx="52" fill="url(#ink)"/>
<rect x="8" y="8" width="224" height="224" rx="52" fill="url(#glow)"/>
<rect x="8" y="8" width="224" height="224" rx="52" fill="none" stroke="#36d6ff" stroke-opacity=".25" stroke-width="1.5"/>
<!-- HUD-ringen -->
<circle cx="120" cy="114" r="86" fill="none" stroke="#36d6ff" stroke-opacity=".22" stroke-width="1.5"/>
<circle cx="120" cy="114" r="86" fill="none" stroke="url(#cy)" stroke-width="3" stroke-linecap="round" stroke-dasharray="52 488"/>
<circle cx="120" cy="114" r="74" fill="none" stroke="#36d6ff" stroke-opacity=".14" stroke-width="1" stroke-dasharray="2 7"/>
<!-- neuraal brein -->
<g fill="none" stroke="url(#cy)" stroke-width="6.5" stroke-linecap="round">
  <path d="M120 58 C 103 49, 82 54, 76 70 C 62 72, 57 88, 65 99 C 57 110, 62 126, 76 130 C 80 143, 98 149, 110 142"/>
  <path d="M120 58 C 137 49, 158 54, 164 70 C 178 72, 183 88, 175 99 C 183 110, 178 126, 164 130 C 160 143, 142 149, 130 142"/>
</g>
<g stroke="#36d6ff" stroke-opacity=".55" stroke-width="2.4" fill="none">
  <path d="M93 85 L 113 97 L 103 119"/><path d="M113 97 L 128 87 L 143 99"/>
  <path d="M148 83 L 143 99 L 138 119"/><path d="M103 119 L 120 112 L 138 119"/>
</g>
<g fill="#7fe6ff">
  <circle cx="93" cy="85" r="7"/><circle cx="113" cy="97" r="6.5"/><circle cx="128" cy="87" r="7"/>
  <circle cx="148" cy="83" r="6.5"/><circle cx="103" cy="119" r="6.5"/><circle cx="120" cy="112" r="8"/><circle cx="138" cy="119" r="6.5"/>
</g>
<!-- ticks onderaan zoals een HUD -->
<g stroke="#36d6ff" stroke-opacity=".5" stroke-width="2">
  <line x1="86" y1="196" x2="86" y2="188"/><line x1="103" y1="196" x2="103" y2="184"/>
  <line x1="120" y1="196" x2="120" y2="180"/><line x1="137" y1="196" x2="137" y2="184"/>
  <line x1="154" y1="196" x2="154" y2="188"/>
</g>
</svg>